<svg xmlns="http://www.w3.org/2000/svg"><symbol viewBox="0 0 75.889 75.889" id="icon_book"><title>book</title><path fill="currentColor" d="M10.046 65.9c.002.183.005.318.007.408 0 .053-.01.104-.012.158.123 3.01 2.604 5.422 5.643 5.422H65.87V66.36c0-1.103.895-2 2-2 1.103 0 2 .897 2 2v7.528c0 1.104-.897 2-2 2H15.38c-.103 0-.203-.015-.304-.03-5.04-.315-9.047-4.505-9.047-9.624 0-.117.013-.23.017-.346-.062-5.94 0-51.112.007-56.027-.008-.07-.02-.136-.02-.207C6.033 4.33 10.363 0 15.685 0h.017v46.468c0 .536.18 1.025.465 1.27.286.247.63.206.89-.103l7.034-8.304 6.66 8.284c.15.188.332.285.514.285.132 0 .264-.052.385-.153.292-.243.476-.738.476-1.28V0h35.74c1.104 0 2 .896 2 2v56.527c0 1.104-.896 2-2 2-.012 0-.02-.004-.033-.004-.147.035-.3.06-.458.06H15.683c-3.004 0-5.462 2.356-5.637 5.317z"/></symbol><symbol viewBox="0 0 795.035 795.035" id="icon_books"><title>books</title><path fill="currentColor" d="M0 647.59c0 49.89 40.588 90.478 90.48 90.478H744.77v-40.212h-41.895V597.322h41.895v-17.594H795.036v-40.212h-30.16V438.99h30.16v-40.212h-32.673V364.413l-49.647-92.992h52.16V217.35l-131.21-160.38H170.737L51.356 245.075c-20.417 16.612-33.76 41.625-33.76 69.935 0 49.58 40.114 89.89 89.593 90.383-33.292 13.372-56.923 45.847-56.923 83.864 0 27.604 12.688 52.046 32.242 68.656C36.394 562.023 0 600.426 0 647.59zm57.806-332.58c0-18.75 10.43-34.946 25.686-43.586H682.77v93.854H108.074c-27.715-.002-50.268-22.558-50.268-50.268zm82.94 123.98H724.664v100.527H140.746c-27.715 0-50.268-22.54-50.268-50.26 0-27.727 22.552-50.266 50.267-50.266zM90.48 597.323h572.188v100.533H90.477c-27.712 0-50.264-22.54-50.264-50.267 0-27.726 22.553-50.266 50.266-50.266z"/></symbol><symbol viewBox="0 0 438.549 438.549" id="icon_github"><title>github</title><path fill="currentColor" d="M409.132 114.573c-19.608-33.596-46.205-60.194-79.798-79.8C295.736 15.166 259.057 5.365 219.27 5.365c-39.78 0-76.47 9.804-110.062 29.408-33.596 19.605-60.192 46.204-79.8 79.8C9.803 148.168 0 184.853 0 224.63c0 47.78 13.94 90.745 41.827 128.906 27.884 38.164 63.906 64.572 108.063 79.227 5.14.954 8.945.283 11.42-1.996 2.474-2.282 3.71-5.14 3.71-8.562 0-.57-.05-5.708-.144-15.417-.098-9.71-.144-18.18-.144-25.406l-6.567 1.136c-4.187.767-9.47 1.092-15.846 1-6.375-.09-12.992-.757-19.843-2-6.854-1.23-13.23-4.085-19.13-8.558-5.898-4.473-10.085-10.328-12.56-17.556l-2.855-6.57c-1.903-4.374-4.9-9.233-8.992-14.56-4.093-5.33-8.232-8.944-12.42-10.847l-1.998-1.43c-1.332-.952-2.568-2.1-3.71-3.43-1.143-1.33-1.998-2.663-2.57-3.997-.57-1.335-.097-2.43 1.428-3.29 1.525-.858 4.28-1.275 8.28-1.275l5.708.853c3.807.763 8.516 3.042 14.133 6.85 5.615 3.807 10.23 8.755 13.847 14.843 4.38 7.807 9.657 13.755 15.846 17.848 6.184 4.093 12.42 6.136 18.7 6.136 6.28 0 11.703-.476 16.273-1.423 4.565-.95 8.848-2.382 12.847-4.284 1.713-12.758 6.377-22.56 13.988-29.41-10.847-1.14-20.6-2.857-29.263-5.14-8.658-2.286-17.605-5.996-26.835-11.14-9.235-5.137-16.896-11.516-22.985-19.126-6.09-7.614-11.088-17.61-14.987-29.98-3.9-12.373-5.852-26.647-5.852-42.825 0-23.035 7.52-42.637 22.557-58.817-7.044-17.318-6.38-36.732 1.997-58.24 5.52-1.715 13.706-.428 24.554 3.853 10.85 4.284 18.794 7.953 23.84 10.995 5.046 3.04 9.09 5.618 12.135 7.708 17.706-4.947 35.977-7.42 54.82-7.42s37.116 2.473 54.822 7.42l10.85-6.85c7.418-4.57 16.18-8.757 26.26-12.564 10.09-3.806 17.803-4.854 23.135-3.14 8.562 21.51 9.325 40.923 2.28 58.24 15.035 16.18 22.558 35.788 22.558 58.818 0 16.178-1.958 30.497-5.853 42.966-3.9 12.47-8.94 22.457-15.125 29.98-6.19 7.52-13.9 13.85-23.13 18.985-9.233 5.14-18.183 8.85-26.84 11.135-8.663 2.286-18.416 4.004-29.264 5.146 9.894 8.563 14.842 22.078 14.842 40.54v60.237c0 3.422 1.19 6.28 3.572 8.562 2.38 2.278 6.136 2.95 11.276 1.994 44.163-14.653 80.185-41.062 108.068-79.226 27.88-38.16 41.826-81.126 41.826-128.906-.01-39.77-9.818-76.454-29.414-110.05z"/></symbol><symbol viewBox="0 0 125.917 125.917" id="icon_tv"><title>tv</title><path fill="currentColor" d="M109.605 63.45c-5.73 0-10.388-4.653-10.388-10.386 0-5.737 4.658-10.384 10.388-10.384 5.74 0 10.384 4.647 10.384 10.384 0 5.733-4.646 10.385-10.385 10.385zm0 25.965c-5.73 0-10.388-4.648-10.388-10.388 0-5.737 4.658-10.386 10.388-10.386 5.74 0 10.384 4.65 10.384 10.387 0 5.736-4.646 10.388-10.385 10.388zm-15.17 15.575c0 5.737-5.054 11.207-10.798 11.207h-62.32c-5.725 0-9.872-5.47-9.872-11.207V53.06c0-5.732 4.147-11.27 9.87-11.27h62.318c5.743 0 10.803 5.538 10.803 11.27v51.93zm20.357-71.784H76.304c-3.16 0-4.083-2.43-2.056-4.856l10.12-12.366c2.024-2.43 3.845-4.468 4.06-4.417.127.038.255.004.403.004 2.873 0 5.195-2.346 5.195-5.222 0-2.86-2.322-5.204-5.194-5.204-2.86 0-5.193 2.324-5.193 5.186 0 .308.037.604.1.892.106.488-1.377 2.828-3.402 5.255L67.488 27.89c-2.02 2.43-4.09 4.396-4.617 4.396s-2.587-1.966-4.612-4.398L45.416 12.482c-2.026-2.432-3.523-4.776-3.42-5.265.06-.29.096-.586.096-.893 0-2.86-2.32-5.19-5.195-5.19-2.86 0-5.194 2.33-5.194 5.19 0 2.875 2.333 5.195 5.194 5.195.15 0 .283-.028.412-.062.22-.05 2.042 1.87 4.068 4.302l10.11 12.595c2.024 2.43 1.102 4.856-2.057 4.856H10.935C5.207 33.21 0 36.94 0 42.676v72.702c0 5.744 5.207 9.405 10.934 9.405h103.863c5.738 0 11.12-3.664 11.12-9.405V42.672c-.002-5.734-5.38-9.466-11.125-9.466"/></symbol></svg>