<?xml version="1.0" encoding="iso-8859-1"?>
<!-- Generator: Adobe Illustrator 16.0.0, SVG Export Plug-In . SVG Version: 6.00 Build 0)  -->
<!DOCTYPE svg PUBLIC "-//W3C//DTD SVG 1.1//EN" "http://www.w3.org/Graphics/SVG/1.1/DTD/svg11.dtd">
<svg version="1.1" id="Capa_1" xmlns="http://www.w3.org/2000/svg" xmlns:xlink="http://www.w3.org/1999/xlink" x="0px" y="0px"
	 width="125.917px" height="125.917px" viewBox="0 0 125.917 125.917" style="enable-background:new 0 0 125.917 125.917;"
	 xml:space="preserve">
<g>
	<g>
		<path fill="currentColor" id="path3378" d="M109.605,63.449c-5.729,0-10.388-4.652-10.388-10.385c0-5.737,4.658-10.384,10.388-10.384
			c5.739,0,10.384,4.647,10.384,10.384C119.989,58.797,115.344,63.449,109.605,63.449z M109.605,89.415
			c-5.729,0-10.388-4.648-10.388-10.388c0-5.737,4.658-10.386,10.388-10.386c5.739,0,10.384,4.648,10.384,10.386
			C119.989,84.763,115.344,89.415,109.605,89.415z M94.436,104.99c0,5.737-5.055,11.207-10.799,11.207H21.316
			c-5.724,0-9.871-5.47-9.871-11.207V53.06c0-5.732,4.147-11.271,9.871-11.271h62.317c5.743,0,10.803,5.539,10.803,11.271V104.99
			L94.436,104.99z M114.792,33.206H76.304c-3.159,0-4.083-2.429-2.056-4.856l10.119-12.366c2.025-2.429,3.846-4.468,4.061-4.417
			c0.127,0.038,0.255,0.004,0.403,0.004c2.872,0,5.194-2.347,5.194-5.223c0-2.861-2.322-5.204-5.194-5.204
			c-2.862,0-5.194,2.324-5.194,5.186c0,0.308,0.037,0.604,0.101,0.892c0.105,0.488-1.378,2.828-3.403,5.255L67.488,27.89
			c-2.021,2.429-4.091,4.396-4.617,4.396s-2.588-1.966-4.613-4.398L45.416,12.482c-2.026-2.432-3.523-4.776-3.42-5.265
			c0.061-0.29,0.096-0.586,0.096-0.893c0-2.86-2.321-5.189-5.195-5.189c-2.86,0-5.194,2.329-5.194,5.189
			c0,2.875,2.333,5.195,5.194,5.195c0.151,0,0.283-0.027,0.412-0.061c0.221-0.051,2.043,1.871,4.069,4.302l10.111,12.595
			c2.023,2.429,1.101,4.856-2.058,4.856H10.934C5.207,33.208,0,36.941,0,42.675v72.702c0,5.744,5.207,9.405,10.934,9.405h103.863
			c5.738,0,11.12-3.664,11.12-9.405V42.672C125.915,36.938,120.536,33.206,114.792,33.206"/>
	</g>
</g>
<g>
</g>
<g>
</g>
<g>
</g>
<g>
</g>
<g>
</g>
<g>
</g>
<g>
</g>
<g>
</g>
<g>
</g>
<g>
</g>
<g>
</g>
<g>
</g>
<g>
</g>
<g>
</g>
<g>
</g>
</svg>
