<svg xmlns="http://www.w3.org/2000/svg" width="795.035" height="795.035" viewBox="0 0 795.035 795.035"><path fill="currentColor" d="M0 647.59c0 49.89 40.588 90.478 90.48 90.478H744.77v-40.212h-41.895V597.322h41.895v-17.594H795.036v-40.212h-30.16V438.99h30.16v-40.212h-32.673V364.413l-49.647-92.992h52.16V217.35l-131.21-160.38H170.737L51.356 245.075c-20.417 16.612-33.76 41.625-33.76 69.935 0 49.58 40.114 89.89 89.593 90.383-33.292 13.372-56.923 45.847-56.923 83.864 0 27.604 12.688 52.046 32.242 68.656C36.394 562.023 0 600.426 0 647.59zm57.806-332.58c0-18.75 10.43-34.946 25.686-43.586H682.77v93.854H108.074c-27.715-.002-50.268-22.558-50.268-50.268zm82.94 123.98H724.664v100.527H140.746c-27.715 0-50.268-22.54-50.268-50.26 0-27.727 22.552-50.266 50.267-50.266zM90.48 597.323h572.188v100.533H90.477c-27.712 0-50.264-22.54-50.264-50.267 0-27.726 22.553-50.266 50.266-50.266z"/></svg>