<svg xmlns="http://www.w3.org/2000/svg" width="75.889" height="75.889" viewBox="0 0 75.889 75.889"><path fill="currentColor" d="M10.046 65.9c.002.183.005.318.007.408 0 .053-.01.104-.012.158.123 3.01 2.604 5.422 5.643 5.422H65.87V66.36c0-1.103.895-2 2-2 1.103 0 2 .897 2 2v7.528c0 1.104-.897 2-2 2H15.38c-.103 0-.203-.015-.304-.03-5.04-.315-9.047-4.505-9.047-9.624 0-.117.013-.23.017-.346-.062-5.94 0-51.112.007-56.027-.008-.07-.02-.136-.02-.207C6.033 4.33 10.363 0 15.685 0h.017v46.468c0 .536.18 1.025.465 1.27.286.247.63.206.89-.103l7.034-8.304 6.66 8.284c.15.188.332.285.514.285.132 0 .264-.052.385-.153.292-.243.476-.738.476-1.28V0h35.74c1.104 0 2 .896 2 2v56.527c0 1.104-.896 2-2 2-.012 0-.02-.004-.033-.004-.147.035-.3.06-.458.06H15.683c-3.004 0-5.462 2.356-5.637 5.317z"/></svg>