<svg xmlns="http://www.w3.org/2000/svg" width="125.917" height="125.917" viewBox="0 0 125.917 125.917"><path fill="currentColor" d="M109.605 63.45c-5.73 0-10.388-4.653-10.388-10.386 0-5.737 4.658-10.384 10.388-10.384 5.74 0 10.384 4.647 10.384 10.384 0 5.733-4.646 10.385-10.385 10.385zm0 25.965c-5.73 0-10.388-4.648-10.388-10.388 0-5.737 4.658-10.386 10.388-10.386 5.74 0 10.384 4.65 10.384 10.387 0 5.736-4.646 10.388-10.385 10.388zm-15.17 15.575c0 5.737-5.054 11.207-10.798 11.207h-62.32c-5.725 0-9.872-5.47-9.872-11.207V53.06c0-5.732 4.147-11.27 9.87-11.27h62.318c5.743 0 10.803 5.538 10.803 11.27v51.93zm20.357-71.784H76.304c-3.16 0-4.083-2.43-2.056-4.856l10.12-12.366c2.024-2.43 3.845-4.468 4.06-4.417.127.038.255.004.403.004 2.873 0 5.195-2.346 5.195-5.222 0-2.86-2.322-5.204-5.194-5.204-2.86 0-5.193 2.324-5.193 5.186 0 .308.037.604.1.892.106.488-1.377 2.828-3.402 5.255L67.488 27.89c-2.02 2.43-4.09 4.396-4.617 4.396s-2.587-1.966-4.612-4.398L45.416 12.482c-2.026-2.432-3.523-4.776-3.42-5.265.06-.29.096-.586.096-.893 0-2.86-2.32-5.19-5.195-5.19-2.86 0-5.194 2.33-5.194 5.19 0 2.875 2.333 5.195 5.194 5.195.15 0 .283-.028.412-.062.22-.05 2.042 1.87 4.068 4.302l10.11 12.595c2.024 2.43 1.102 4.856-2.057 4.856H10.935C5.207 33.21 0 36.94 0 42.676v72.702c0 5.744 5.207 9.405 10.934 9.405h103.863c5.738 0 11.12-3.664 11.12-9.405V42.672c-.002-5.734-5.38-9.466-11.125-9.466"/></svg>